<svg width="59" height="55" viewBox="0 0 59 55" fill="none" xmlns="http://www.w3.org/2000/svg">
<path d="M18.8426 7.66685L12.4085 9.82958V9.4511L10.7324 11.2894L13.4899 26.5907L19.4374 36.8636L28.7912 44.9197L31.7649 43.568L37.5502 38.4316L44.4709 27.8342L46.958 19.0752V10.3162L43.5517 9.4511L35.7659 5.72041L28.7912 1.77344L25.3849 4.2065L18.8426 7.66685Z" fill="#FFDD2D"/>
<path d="M29.083 3.33059C32.6731 6.22864 36.9661 8.19672 40.1453 9.38621C42.2756 10.1864 44.395 10.8136 45.9738 11.2029C46.0171 13.4305 45.8765 17.5397 44.6113 22.3409C43.4975 26.5582 41.7349 30.4295 39.3775 33.8466C36.7066 37.7287 33.2462 41.0485 29.083 43.7302C24.9522 41.0701 21.5134 37.7828 18.8533 33.9439C16.4959 30.5484 14.7333 26.7096 13.6087 22.5247C12.3002 17.6803 12.1488 13.4629 12.2029 11.2029C13.7817 10.8136 15.912 10.1864 18.0314 9.38621C21.1998 8.19672 25.4928 6.22864 29.083 3.33059ZM29.083 0C22.3136 6.61793 10.4511 9.1375 9.8131 9.1375C9.8131 9.1375 6.9475 33.533 29.083 46.6607C51.2292 33.533 48.3528 9.1375 48.3528 9.1375C47.7148 9.1375 35.8523 6.61793 29.083 0Z" fill="#191C30" fill-opacity="0.9"/>
<circle cx="29.2449" cy="17.9436" r="7.96875" fill="white"/>
<path d="M29.9265 36.6145L28.9641 34.6788L28.0017 36.6145L25.8606 36.9281L27.4178 38.442L27.0501 40.5831L28.9641 39.5774L30.8889 40.5831L30.5213 38.442L32.0784 36.9281L29.9265 36.6145Z" fill="white"/>
<path d="M29.7178 36.7182L29.7722 36.8275L29.8929 36.8451L31.577 37.0905L30.3588 38.2749L30.2708 38.3604L30.2916 38.4814L30.5795 40.1585L29.072 39.3708L28.9638 39.3143L28.8557 39.3711L27.3597 40.1571L27.6474 38.4814L27.6682 38.3604L27.5802 38.2749L26.3617 37.0902L28.0355 36.8451L28.1561 36.8274L28.2104 36.7182L28.9641 35.2023L29.7178 36.7182Z" stroke="#191C30" stroke-opacity="0.9" stroke-width="0.466113"/>
<path d="M23.4775 30.788L22.5151 28.8524L21.5527 30.788L19.4116 31.1016L20.9688 32.6156L20.6011 34.7566L22.5151 33.751L24.4399 34.7566L24.0723 32.6156L25.6294 31.1016L23.4775 30.788Z" fill="white"/>
<path d="M23.2689 30.8918L23.3232 31.0011L23.4439 31.0187L25.128 31.2641L23.9098 32.4485L23.8218 32.534L23.8426 32.655L24.1306 34.3321L22.6231 33.5444L22.5148 33.4879L22.4067 33.5447L20.9107 34.3307L21.1985 32.655L21.2192 32.534L21.1312 32.4485L19.9127 31.2638L21.5865 31.0186L21.7071 31.001L21.7614 30.8918L22.5151 29.3759L23.2689 30.8918Z" stroke="#191C30" stroke-opacity="0.9" stroke-width="0.466113"/>
<path d="M19.9817 24.0294L19.0193 22.0938L18.0569 24.0294L15.9158 24.343L17.4729 25.8569L17.1053 27.998L19.0193 26.9923L20.9441 27.998L20.5764 25.8569L22.1336 24.343L19.9817 24.0294Z" fill="white"/>
<path d="M19.773 24.1331L19.8273 24.2424L19.9481 24.26L21.6322 24.5054L20.414 25.6898L20.326 25.7753L20.3467 25.8963L20.6347 27.5734L19.1272 26.7858L19.019 26.7292L18.9109 26.786L17.4149 27.572L17.7026 25.8963L17.7234 25.7753L17.6354 25.6898L16.4169 24.5051L18.0906 24.26L18.2113 24.2423L18.2655 24.1331L19.0193 22.6172L19.773 24.1331Z" stroke="#191C30" stroke-opacity="0.9" stroke-width="0.466113"/>
<path d="M40.1829 24.0294L39.2205 22.0938L38.258 24.0294L36.1169 24.343L37.6741 25.8569L37.3064 27.998L39.2205 26.9923L41.1453 27.998L40.7776 25.8569L42.3348 24.343L40.1829 24.0294Z" fill="white"/>
<path d="M39.9742 24.1331L40.0285 24.2424L40.1493 24.26L41.8333 24.5054L40.6152 25.6898L40.5271 25.7753L40.5479 25.8963L40.8359 27.5734L39.3284 26.7858L39.2201 26.7292L39.112 26.786L37.6161 27.572L37.9038 25.8963L37.9246 25.7753L37.8366 25.6898L36.6181 24.5051L38.2918 24.26L38.4124 24.2423L38.4667 24.1331L39.2205 22.6172L39.9742 24.1331Z" stroke="#191C30" stroke-opacity="0.9" stroke-width="0.466113"/>
<path d="M42.8213 16.8047L41.8589 14.869L40.8965 16.8047L38.7554 17.1182L40.3125 18.6322L39.9449 20.7732L41.8589 19.7676L43.7837 20.7732L43.416 18.6322L44.9732 17.1182L42.8213 16.8047Z" fill="white"/>
<path d="M42.6126 16.9084L42.6669 17.0177L42.7877 17.0353L44.4718 17.2807L43.2536 18.4651L43.1656 18.5506L43.1863 18.6716L43.4743 20.3487L41.9668 19.561L41.8586 19.5045L41.7505 19.5613L40.2545 20.3473L40.5422 18.6716L40.563 18.5506L40.475 18.4651L39.2565 17.2804L40.9302 17.0352L41.0509 17.0176L41.1051 16.9084L41.8589 15.3925L42.6126 16.9084Z" stroke="#191C30" stroke-opacity="0.9" stroke-width="0.466113"/>
<path d="M16.9519 16.8047L15.9895 14.869L15.0271 16.8047L12.886 17.1182L14.4431 18.6322L14.0755 20.7732L15.9895 19.7676L17.9143 20.7732L17.5467 18.6322L19.1038 17.1182L16.9519 16.8047Z" fill="white"/>
<path d="M16.7432 16.9084L16.7975 17.0177L16.9183 17.0353L18.6024 17.2807L17.3842 18.4651L17.2962 18.5506L17.317 18.6716L17.6049 20.3487L16.0974 19.561L15.9892 19.5045L15.8811 19.5613L14.3851 20.3473L14.6728 18.6716L14.6936 18.5506L14.6056 18.4651L13.3871 17.2804L15.0609 17.0352L15.1815 17.0176L15.2358 16.9084L15.9895 15.3925L16.7432 16.9084Z" stroke="#191C30" stroke-opacity="0.9" stroke-width="0.466113"/>
<path d="M36.687 30.788L35.7246 28.8524L34.7622 30.788L32.6211 31.1016L34.1783 32.6156L33.8106 34.7566L35.7246 33.751L37.6494 34.7566L37.2818 32.6156L38.8389 31.1016L36.687 30.788Z" fill="white"/>
<path d="M36.4783 30.8918L36.5327 31.0011L36.6534 31.0187L38.3375 31.2641L37.1193 32.4485L37.0313 32.534L37.0521 32.655L37.34 34.3321L35.8325 33.5444L35.7243 33.4879L35.6162 33.5447L34.1202 34.3307L34.4079 32.655L34.4287 32.534L34.3407 32.4485L33.1222 31.2638L34.796 31.0186L34.9166 31.001L34.9709 30.8918L35.7246 29.3759L36.4783 30.8918Z" stroke="#191C30" stroke-opacity="0.9" stroke-width="0.466113"/>
<path d="M16.462 47.1395L16.573 47.0459L16.5981 46.9028C16.8123 45.681 16.6275 44.2002 16.2633 42.8426C15.8984 41.4825 15.3392 40.1938 14.7603 39.3513L14.4102 38.8417L14.0889 39.37C13.5649 40.2316 13.1881 41.4427 13.1737 42.6753C13.1642 43.4901 13.3136 44.3317 13.6983 45.0908C12.5251 44.7982 11.0334 44.7486 8.8526 44.9761L8.85179 44.9762C8.34362 45.0302 7.86517 45.098 7.51035 45.2082L6.85245 45.4123L7.35588 45.8825C8.55601 47.0034 10.182 47.8453 11.8231 48.1502C13.4642 48.4552 15.1695 48.2295 16.462 47.1395Z" stroke="#191C30" stroke-opacity="0.9" stroke-width="0.8"/>
<path d="M12.5776 44.3469L12.7063 44.282L12.764 44.15C13.23 43.084 13.388 41.7053 13.327 40.3572C13.2658 39.0056 12.9824 37.6395 12.5267 36.5859L12.275 36.0037L11.8581 36.4817C10.5631 37.9669 9.89891 40.0384 10.4003 41.8514C8.61796 40.9157 6.46584 40.6062 4.63044 40.769L3.94369 40.8299L4.33741 41.3958C5.24891 42.7061 6.62429 43.7744 8.1017 44.354C9.57683 44.9327 11.202 45.0407 12.5776 44.3469Z" stroke="#191C30" stroke-opacity="0.9" stroke-width="0.8"/>
<path d="M9.4519 40.8184L9.58892 40.7816L9.67215 40.6667C10.3356 39.7509 10.7503 38.4499 10.9351 37.1454C11.1203 35.8378 11.0821 34.4725 10.7941 33.407L10.63 32.7999L10.1497 33.2058C8.74276 34.395 7.78834 36.2824 7.92232 38.0979C7.23017 37.5611 6.45195 37.1461 5.69558 36.8344C4.54495 36.3602 3.41352 36.1121 2.64701 36.0434L1.95721 35.9817L2.2484 36.61C2.89883 38.0136 4.01297 39.2379 5.29581 40.0267C6.57606 40.8139 8.06576 41.1904 9.4519 40.8184Z" stroke="#191C30" stroke-opacity="0.9" stroke-width="0.8"/>
<path d="M7.15405 36.8404L7.29399 36.8287L7.3959 36.7321C8.1983 35.9713 8.76342 34.8107 9.0983 33.6093C9.43452 32.4031 9.55267 31.1061 9.42089 30.0346L9.34395 29.4091L8.8107 29.745C7.43199 30.6134 6.27497 32.0406 6.04425 33.652C4.93461 32.4231 3.40241 31.6442 1.74151 31.2001L1.07394 31.0216L1.25163 31.6894C1.60644 33.0228 2.40304 34.3526 3.43585 35.327C4.46606 36.299 5.77555 36.9558 7.15405 36.8404Z" stroke="#191C30" stroke-opacity="0.9" stroke-width="0.8"/>
<path d="M5.53755 32.3417L5.67625 32.3545L5.79287 32.2783C6.66776 31.707 7.45636 30.678 8.0245 29.5807C8.59342 28.4819 8.97444 27.2506 8.98033 26.2362L8.98393 25.6173L8.4182 25.8682C6.58741 26.6799 5.46965 28.0878 5.07774 29.5159C4.29747 28.2982 3.0023 27.0304 1.16752 26.1842L0.540428 25.895L0.601571 26.5828C0.739746 28.1373 1.42371 29.5197 2.33628 30.5383C3.24342 31.5508 4.40891 32.238 5.53755 32.3417Z" stroke="#191C30" stroke-opacity="0.9" stroke-width="0.8"/>
<path d="M4.75278 27.8113L4.88285 27.8439L5.00625 27.7914C5.73479 27.4818 6.64654 26.7537 7.38564 25.7762C8.12891 24.7932 8.72815 23.5179 8.77482 22.0945L8.79621 21.4418L8.20509 21.7193C6.3567 22.5867 5.29199 23.8657 4.77741 25.0623C4.25325 23.9049 3.23028 22.612 1.3326 21.7194L0.745422 21.4432L0.762492 22.0919C0.791886 23.2088 1.24788 24.4912 1.94569 25.5556C2.64001 26.6147 3.62104 27.5284 4.75278 27.8113Z" stroke="#191C30" stroke-opacity="0.9" stroke-width="0.8"/>
<path d="M4.64138 23.2301L4.76378 23.2693L4.88609 23.2298C5.65894 22.9805 6.56712 22.2753 7.28219 21.3355C8.00339 20.3877 8.56768 19.1503 8.59115 17.7953L8.60248 17.141L8.01499 17.4293C7.40635 17.728 6.77138 18.1241 6.22524 18.5916C5.68224 19.0564 5.20591 19.6099 4.94599 20.2288L4.94575 20.2293C4.8912 20.3598 4.83748 20.4923 4.78595 20.6258C4.32423 19.5558 3.38058 18.3318 1.52095 17.4286L0.93777 17.1453L0.946225 17.7936C0.963833 19.1435 1.52259 20.3812 2.24106 21.3306C2.95341 22.2719 3.86201 22.9807 4.64138 23.2301Z" stroke="#191C30" stroke-opacity="0.9" stroke-width="0.8"/>
<path d="M4.64652 18.6468L4.76495 18.6829L4.88306 18.6458C5.55045 18.436 6.42321 17.7988 7.12413 16.9167C7.8325 16.0251 8.40721 14.8316 8.40721 13.4738V12.8253L7.8277 13.1163C6.11529 13.9762 5.21805 15.1398 4.76546 16.1539C4.31586 15.1387 3.42052 13.9773 1.69793 13.116L1.11904 12.8265V13.4738C1.11904 14.8314 1.6936 16.0276 2.40192 16.9205C3.10239 17.8035 3.97618 18.4425 4.64652 18.6468Z" stroke="#191C30" stroke-opacity="0.9" stroke-width="0.8"/>
<path d="M20.6824 43.1966L20.139 42.8181L20.0569 43.4752C19.9908 44.0038 19.9949 45.3031 20.3885 46.7293C20.6701 47.7493 21.1577 48.8579 21.9822 49.7969C20.7384 49.6906 19.5574 49.9552 18.5699 50.3327C17.1888 50.8608 16.1403 51.627 15.755 51.9943L15.2772 52.4497L15.9021 52.6625C17.1996 53.1043 18.8423 53.3871 20.4715 53.2763C22.1004 53.1654 23.7478 52.6579 25.0085 51.4844L25.1171 51.3834L25.1335 51.236C25.325 49.5182 24.757 47.8891 23.8814 46.5111C23.0057 45.1331 21.8065 43.9795 20.6824 43.1966Z" stroke="#191C30" stroke-opacity="0.9" stroke-width="0.8"/>
<path d="M17.3482 41.4757L16.9099 41.0148L16.6843 41.6094C15.8919 43.6977 16.1326 46.0257 17.6244 47.6716C16.3926 47.5787 15.1379 47.7593 14.0858 48.004C12.5829 48.3536 11.4242 48.8511 11.2253 48.9571L10.6038 49.2886L11.2069 49.6525C14.5816 51.6886 18.4471 51.2445 20.6072 49.2353L20.715 49.1351L20.7321 48.989C20.9084 47.4843 20.3587 45.9281 19.6396 44.6117C18.9164 43.2876 17.9933 42.1542 17.3482 41.4757Z" stroke="#191C30" stroke-opacity="0.9" stroke-width="0.8"/>
<path d="M4.66069 14.8342L4.88589 14.9838L5.10871 14.8307C6.11233 14.1407 6.48282 13.0756 6.41817 11.9901C6.35421 10.9163 5.86803 9.80232 5.13663 8.91543L4.81931 8.53066L4.51261 8.92393C3.80009 9.83756 3.33982 10.9598 3.29964 12.0314C3.25901 13.1149 3.65201 14.1638 4.66069 14.8342Z" stroke="#191C30" stroke-opacity="0.9" stroke-width="0.8"/>
<path d="M44.4571 45.0905C44.8417 44.3314 44.9911 43.49 44.9816 42.6753C44.9672 41.4427 44.5904 40.2316 44.0664 39.37L43.7435 38.839L43.3939 39.3528C42.8211 40.1948 42.2649 41.4829 41.9001 42.8426C41.536 44.1997 41.3486 45.6799 41.5569 46.901L41.5815 47.0452L41.6933 47.1395C42.9858 48.2295 44.6911 48.4553 46.3312 48.1488C47.9713 47.8424 49.595 46.9974 50.79 45.8704L51.2884 45.4004L50.6341 45.1973C50.2793 45.0872 49.8009 45.0194 49.2927 44.9653L49.2906 44.9651C47.1184 44.7456 45.6293 44.7974 44.4571 45.0905Z" stroke="#191C30" stroke-opacity="0.9" stroke-width="0.8"/>
<path d="M53.5227 40.758C51.6863 40.6042 49.54 40.9162 47.7544 41.8536C48.2565 40.0427 47.592 37.976 46.2977 36.4827L45.8809 36.0017L45.6283 36.5859C45.1727 37.6395 44.8893 39.0056 44.8281 40.3572C44.7671 41.7053 44.9251 43.084 45.391 44.15L45.4488 44.282L45.5774 44.3469C46.9531 45.0407 48.5784 44.9327 50.0537 44.3525C51.5313 43.7714 52.9067 42.7002 53.8181 41.3843L54.212 40.8157L53.5227 40.758Z" stroke="#191C30" stroke-opacity="0.9" stroke-width="0.8"/>
<path d="M52.4597 36.8344C51.7029 37.1463 50.9242 37.5616 50.2318 38.0989C50.3642 36.28 49.4041 34.3865 48.0054 33.2057L47.5244 32.7997L47.361 33.4075C47.0733 34.478 47.0349 35.843 47.2202 37.1495C47.405 38.4529 47.8198 39.751 48.4831 40.6667L48.5664 40.7816L48.7034 40.8184C50.0894 41.1904 51.5818 40.8139 52.8634 40.0268C54.1476 39.238 55.2622 38.0134 55.9074 36.6088L56.1954 35.9819L55.5083 36.0434C54.7418 36.1121 53.6103 36.3602 52.4597 36.8344Z" stroke="#191C30" stroke-opacity="0.9" stroke-width="0.8"/>
<path d="M56.4246 31.2001C54.7632 31.6443 53.2306 32.4235 52.1209 33.6531C51.8881 32.0408 50.7253 30.6134 49.3564 29.7456L48.8224 29.4071L48.7452 30.0346C48.6135 31.1061 48.7316 32.4005 49.0679 33.6054C49.4028 34.8057 49.9679 35.9654 50.7691 36.731L50.8705 36.8279L51.0102 36.8403C52.3849 36.9619 53.6952 36.3039 54.7262 35.3311C55.7602 34.3555 56.5596 33.023 56.9145 31.6894L57.0922 31.0216L56.4246 31.2001Z" stroke="#191C30" stroke-opacity="0.9" stroke-width="0.8"/>
<path d="M52.3639 32.2794L52.48 32.3544L52.6177 32.3417C53.7463 32.238 54.9117 31.5508 55.8201 30.5385C56.7339 29.5202 57.4204 28.1382 57.5643 26.5843L57.6283 25.8938L56.9985 26.1842C55.1638 27.0303 53.8692 28.3038 53.0892 29.5192C52.6981 28.0899 51.58 26.6805 49.7478 25.8682L49.1821 25.6173L49.1857 26.2362C49.1916 27.2498 49.5694 28.4835 50.1357 29.5839C50.7009 30.6823 51.4872 31.7128 52.3639 32.2794Z" stroke="#191C30" stroke-opacity="0.9" stroke-width="0.8"/>
<path d="M53.1505 27.7921L53.2743 27.8441L53.4044 27.8108C54.5344 27.5222 55.5148 26.6097 56.2106 25.552C56.9097 24.4892 57.3682 23.2102 57.4035 22.094L57.4241 21.4428L56.834 21.7191C54.9336 22.6092 53.9079 23.8981 53.3853 25.0547C52.8695 23.8603 51.8054 22.5849 49.961 21.7193L49.3699 21.4419L49.3912 22.0944C49.4379 23.5229 50.0368 24.8008 50.7788 25.784C51.5164 26.7614 52.4259 27.4876 53.1505 27.7921Z" stroke="#191C30" stroke-opacity="0.9" stroke-width="0.8"/>
<path d="M53.281 23.2301L53.4034 23.2693L53.5257 23.2298C54.2986 22.9805 55.2068 22.2753 55.9218 21.3355C56.643 20.3877 57.2073 19.1503 57.2308 17.7953L57.2421 17.144L56.6561 17.4286C54.7896 18.3352 53.8515 19.5643 53.3919 20.6353C53.3409 20.5006 53.2874 20.3658 53.2323 20.2317L53.2323 20.2317L53.2311 20.2288C52.9714 19.6105 52.4955 19.0544 51.9523 18.5879C51.4059 18.1188 50.7701 17.722 50.1594 17.428L49.5775 17.1478L49.5859 17.7936C49.6035 19.1435 50.1622 20.3812 50.8807 21.3306C51.5931 22.2719 52.5017 22.9807 53.281 23.2301Z" stroke="#191C30" stroke-opacity="0.9" stroke-width="0.8"/>
<path d="M53.2862 18.6468L53.4046 18.6829L53.5227 18.6458C54.1901 18.436 55.0629 17.7988 55.7638 16.9167C56.4721 16.0251 57.0469 14.8316 57.0469 13.4738V12.8253L56.4673 13.1163C54.7549 13.9762 53.8577 15.1398 53.4051 16.1539C52.9555 15.1387 52.0602 13.9773 50.3376 13.116L49.7587 12.8265V13.4738C49.7587 14.8314 50.3332 16.0276 51.0416 16.9205C51.742 17.8035 52.6158 18.4425 53.2862 18.6468Z" stroke="#191C30" stroke-opacity="0.9" stroke-width="0.8"/>
<path d="M36.1839 49.786C37.0084 48.8471 37.4961 47.7384 37.7776 46.7185C38.1713 45.2923 38.1754 43.993 38.1093 43.4644L38.0271 42.8073L37.4838 43.1857C36.3593 43.9689 35.1602 45.1252 34.2848 46.503C33.4095 47.8805 32.841 49.5071 33.0327 51.2146L33.0493 51.3624L33.1583 51.4634C34.424 52.6362 36.0709 53.1438 37.6987 53.2547C39.3266 53.3655 40.9667 53.0826 42.2641 52.6408L42.8948 52.4261L42.4087 51.9704C42.0247 51.6104 40.9772 50.8472 39.5959 50.3205C38.6086 49.944 37.4277 49.6797 36.1839 49.786Z" stroke="#191C30" stroke-opacity="0.9" stroke-width="0.8"/>
<path d="M40.537 47.6723C42.0257 46.0269 42.2747 43.6991 41.4818 41.6094L41.2562 41.0148L40.8179 41.4757C40.1727 42.1543 39.2522 43.2852 38.5316 44.6096C37.8149 45.9267 37.2687 47.4851 37.4448 48.9994L37.4617 49.1451L37.5689 49.2454C39.7188 51.2558 43.5958 51.6991 46.97 49.6634L47.5827 49.2937L46.9468 48.9654C46.7469 48.8623 45.5854 48.3622 44.0781 48.0095C43.024 47.7629 41.7679 47.5801 40.537 47.6723Z" stroke="#191C30" stroke-opacity="0.9" stroke-width="0.8"/>
<path d="M53.0465 14.8307L53.2693 14.9838L53.4945 14.8342C54.5032 14.1638 54.8962 13.1149 54.8556 12.0314C54.8154 10.9598 54.3551 9.83756 53.6426 8.92393L53.3359 8.53066L53.0186 8.91543C52.2872 9.80232 51.801 10.9163 51.7371 11.9901C51.6724 13.0756 52.0429 14.1407 53.0465 14.8307Z" stroke="#191C30" stroke-opacity="0.9" stroke-width="0.8"/>
<path d="M29.2449 9.97485C24.8483 9.97485 21.2761 13.547 21.2761 17.9436C21.2761 22.3401 24.8483 25.9123 29.2449 25.9123C33.6414 25.9123 37.2136 22.3401 37.2136 17.9436C37.2136 13.547 33.6414 9.97485 29.2449 9.97485ZM28.8916 11.846L30.5403 10.9431C31.7703 11.0478 32.4507 11.3619 32.4507 11.3619C32.4507 11.3619 33.0395 11.7021 33.7984 12.5526L34.0471 14.3976L32.3983 14.9471V14.9341L29.5197 13.4162L28.8916 11.846ZM31.9535 15.1958L31.6525 17.3155L31.4562 15.3789L29.8468 14.0704L31.9535 15.1958ZM28.7215 11.846L29.3888 13.5209L27.0335 15.2874L27.0466 15.3004L24.9137 15.2481L23.9847 13.8873L26.3531 11.7152L28.7215 11.846ZM24.9792 15.3789L27.1382 15.4313L28.7476 18.0483L27.4915 20.5868L24.495 20.626L23.409 18.0744L24.9792 15.3789ZM22.9903 14.5284L23.8277 14.3321L24.5474 15.2874L23.7754 14.8032L22.9903 14.5284ZM23.5398 13.1022C24.2333 12.2909 25.0969 11.6236 26.0783 11.1656L26.1306 11.2964L26.1961 11.4535L26.2615 11.6236L23.7492 13.9265L23.7754 13.9527L22.8332 14.149C23.0295 13.7695 23.265 13.4293 23.5398 13.1022ZM22.4276 20.6129C22.0612 19.7362 21.878 18.8334 21.8649 17.9436L23.2912 18.1922L24.338 20.6391H24.3118L24.2333 22.8766L24.0763 23.0467C23.3828 22.3663 22.8202 21.555 22.4276 20.6129ZM24.1679 23.1383L24.2988 23.0075L27.4784 24.6954L27.5569 24.9833C26.3008 24.6824 25.1231 24.0543 24.1679 23.1383ZM31.9404 24.63C30.5534 25.2058 29.1009 25.3104 27.727 25.0226L27.6354 24.6562L29.7552 23.2692L31.8619 22.9813L33.2489 23.9234C32.8301 24.1982 32.3983 24.4337 31.9404 24.63ZM31.8226 22.8374L29.6898 23.1252L27.5831 20.6914L28.8392 18.166L31.8095 17.9567L33.3666 20.1288L31.8226 22.8374ZM31.9796 17.9436L32.3722 15.1172L34.1125 14.5284L35.7219 16.6744L35.3032 19.5661L33.5237 20.1026L31.9796 17.9436ZM34.662 20.1026L35.2378 19.9979L35.7219 21.084L34.662 20.1026ZM35.4341 19.6708L35.8659 16.7005C36.1145 16.6351 36.0621 16.6482 36.2584 16.6089C36.5201 18.0614 36.3369 19.5138 35.7874 20.8092L35.4341 19.6708Z" fill="#191C30" fill-opacity="0.9"/>
</svg>
