<svg width="860" height="1043" viewBox="0 0 860 1043" fill="none" xmlns="http://www.w3.org/2000/svg">
<g opacity="0.7">
<path d="M711.5 81.6549C799.518 152.705 904.768 200.956 982.711 230.119C1034.94 249.737 1086.9 265.114 1125.61 274.658C1126.67 329.271 1123.22 430.014 1092.2 547.725C1064.9 651.119 1021.68 746.03 963.888 829.805C898.405 924.981 813.569 1006.37 711.5 1072.12C610.227 1006.9 525.921 926.307 460.703 832.191C402.908 748.946 359.695 654.831 332.123 552.232C300.044 433.461 296.332 330.066 297.658 274.658C336.365 265.114 388.592 249.737 440.554 230.119C518.232 200.956 623.483 152.705 711.5 81.6549ZM711.5 0C545.539 162.25 254.71 224.021 239.068 224.021C239.068 224.021 168.813 822.117 711.5 1143.96C1254.45 822.117 1183.93 224.021 1183.93 224.021C1168.29 224.021 877.461 162.25 711.5 0Z" fill="#EDEEEF"/>
<path d="M727.065 900.208L728.397 902.887L731.358 903.318L772.646 909.335L742.78 938.371L740.622 940.469L741.131 943.435L748.192 984.551L711.232 965.241L708.579 963.855L705.929 965.247L669.252 984.518L676.306 943.435L676.816 940.469L674.658 938.371L644.784 909.328L685.819 903.317L688.777 902.884L690.107 900.208L708.586 863.043L727.065 900.208Z" fill="#EDEEEF" stroke="#EDEEEF" stroke-width="11.4275"/>
<path d="M568.958 757.364L570.29 760.043L573.25 760.474L614.538 766.491L584.672 795.528L582.515 797.625L583.024 800.591L590.084 841.707L553.125 822.397L550.472 821.011L547.821 822.403L511.144 841.674L518.199 800.591L518.708 797.625L516.551 795.528L486.677 766.484L527.712 760.474L530.669 760.04L532 757.364L550.479 720.199L568.958 757.364Z" fill="#EDEEEF" stroke="#EDEEEF" stroke-width="11.4275"/>
<path d="M483.251 591.664L484.583 594.343L487.544 594.774L528.832 600.791L498.966 629.828L496.808 631.925L497.317 634.891L504.378 676.007L467.418 656.697L464.765 655.311L462.115 656.703L425.438 675.974L432.493 634.891L433.002 631.925L430.844 629.828L400.97 600.784L442.005 594.774L444.963 594.34L446.294 591.664L464.772 554.499L483.251 591.664Z" fill="#EDEEEF" stroke="#EDEEEF" stroke-width="11.4275"/>
<path d="M408.971 414.537L410.303 417.216L413.263 417.647L454.552 423.664L424.686 452.701L422.528 454.798L423.037 457.764L430.098 498.88L393.138 479.57L390.485 478.184L387.835 479.576L351.158 498.847L358.212 457.764L358.722 454.798L356.564 452.701L326.69 423.657L367.725 417.647L370.683 417.213L372.013 414.537L390.492 377.372L408.971 414.537Z" fill="#EDEEEF" stroke="#EDEEEF" stroke-width="11.4275"/>
<path d="M892.81 757.364L894.142 760.043L897.102 760.474L938.391 766.491L908.525 795.528L906.367 797.625L906.876 800.591L913.936 841.707L876.977 822.397L874.324 821.011L871.674 822.403L834.997 841.674L842.051 800.591L842.561 797.625L840.403 795.528L810.529 766.484L851.564 760.474L854.521 760.04L855.852 757.364L874.331 720.199L892.81 757.364Z" fill="#EDEEEF" stroke="#EDEEEF" stroke-width="11.4275"/>
<path d="M402.076 1155.7L404.798 1153.41L405.413 1149.9C410.666 1119.95 406.135 1083.64 397.206 1050.36C388.26 1017.01 374.549 985.417 360.358 964.762L351.773 952.268L343.896 965.221C331.05 986.346 321.811 1016.04 321.459 1046.26C321.226 1066.23 324.889 1086.87 334.321 1105.48C305.558 1098.3 268.986 1097.09 215.52 1102.66L215.51 1102.66L215.5 1102.67C203.041 1103.99 191.311 1105.65 182.612 1108.35L166.483 1113.36L178.825 1124.89C208.248 1152.37 248.111 1173.01 288.347 1180.48C328.581 1187.96 370.389 1182.43 402.076 1155.7Z" stroke="#EDEEEF" stroke-width="19.6133"/>
<path d="M306.845 1087.24L309.999 1085.65L311.414 1082.41C322.838 1056.28 326.712 1022.48 325.216 989.425C323.716 956.288 316.768 922.797 305.597 896.964L299.425 882.69L289.205 894.411C257.456 930.822 241.171 981.609 253.464 1026.06C209.767 1003.12 157.004 995.529 112.006 999.519L95.1695 1001.01L104.822 1014.89C127.169 1047.01 160.889 1073.2 197.11 1087.41C233.275 1101.6 273.118 1104.25 306.845 1087.24Z" stroke="#EDEEEF" stroke-width="19.6133"/>
<path d="M230.212 1000.73L233.572 999.829L235.612 997.012C251.877 974.558 262.046 942.663 266.576 910.681C271.116 878.622 270.179 845.152 263.118 819.028L259.096 804.145L247.321 814.096C212.827 843.25 189.428 889.523 192.712 934.034C175.743 920.872 156.664 910.698 138.12 903.056C109.91 891.43 82.1714 885.347 63.3791 883.665L46.4676 882.15L53.6067 897.555C69.553 931.966 96.8679 961.982 128.319 981.32C159.706 1000.62 196.229 1009.85 230.212 1000.73Z" stroke="#EDEEEF" stroke-width="19.6133"/>
<path d="M173.877 903.205L177.308 902.918L179.806 900.549C199.478 881.897 213.333 853.442 221.543 823.988C229.786 794.417 232.683 762.617 229.452 736.349L227.566 721.013L214.492 729.248C180.691 750.539 152.325 785.53 146.668 825.036C119.463 794.907 81.8992 775.811 41.1792 764.923L24.8128 760.547L29.1692 776.919C37.8679 809.609 57.3978 842.212 82.7188 866.101C107.976 889.93 140.08 906.034 173.877 903.205Z" stroke="#EDEEEF" stroke-width="19.6133"/>
<path d="M134.246 792.911L137.646 793.223L140.505 791.356C161.955 777.348 181.288 752.122 195.217 725.22C209.165 698.281 218.507 668.092 218.651 643.222L218.739 628.051L204.87 634.2C159.985 654.102 132.581 688.618 122.973 723.632C103.843 693.778 72.0896 662.694 27.107 641.948L11.7328 634.858L13.2319 651.722C16.6194 689.832 33.388 723.724 55.7612 748.696C78.0012 773.52 106.575 790.368 134.246 792.911Z" stroke="#EDEEEF" stroke-width="19.6133"/>
<path d="M115.006 681.842L118.195 682.639L121.22 681.353C139.081 673.762 161.434 655.911 179.555 631.947C197.777 607.847 212.468 576.58 213.612 541.683L214.137 525.683L199.645 532.484C154.328 553.751 128.225 585.108 115.609 614.445C102.759 586.069 77.679 554.37 31.1542 532.487L16.7586 525.717L17.1771 541.62C17.8977 569.004 29.0771 600.442 46.1851 626.537C63.2076 652.503 87.2591 674.905 115.006 681.842Z" stroke="#EDEEEF" stroke-width="19.6133"/>
<path d="M112.274 569.525L115.275 570.485L118.274 569.518C137.222 563.406 159.487 546.115 177.018 523.076C194.7 499.838 208.534 469.502 209.11 436.282L209.387 420.24L194.984 427.308C180.062 434.631 164.495 444.341 151.105 455.803C137.793 467.199 126.115 480.77 119.743 495.942L119.74 495.949L119.737 495.956C118.399 499.154 117.082 502.404 115.819 505.676C104.499 479.442 81.3639 449.435 35.772 427.291L21.4743 420.346L21.6816 436.24C22.1133 469.335 35.812 499.679 53.4265 522.956C70.891 546.034 93.1669 563.411 112.274 569.525Z" stroke="#EDEEEF" stroke-width="19.6133"/>
<path d="M112.4 457.157L115.304 458.042L118.2 457.131C134.562 451.989 155.959 436.367 173.143 414.739C190.51 392.882 204.6 363.621 204.6 330.331V314.432L190.392 321.567C148.41 342.65 126.412 371.177 115.316 396.038C104.294 371.15 82.3431 342.675 40.1109 321.559L25.9186 314.463V330.331C25.9186 363.616 40.0048 392.941 57.3705 414.833C74.5437 436.481 95.9661 452.148 112.4 457.157Z" stroke="#EDEEEF" stroke-width="19.6133"/>
<path d="M505.546 1059.04L492.224 1049.76L490.211 1065.87C488.59 1078.83 488.691 1110.68 498.342 1145.65C505.245 1170.65 517.2 1197.83 537.414 1220.85C506.92 1218.25 477.965 1224.73 453.756 1233.99C419.895 1246.94 394.19 1265.72 384.744 1274.73L373.029 1285.89L388.349 1291.11C420.16 1301.94 460.434 1308.87 500.375 1306.16C540.311 1303.44 580.701 1291 611.608 1262.23L614.27 1259.75L614.673 1256.13C619.368 1214.02 605.442 1174.08 583.975 1140.3C562.507 1106.51 533.107 1078.23 505.546 1059.04Z" stroke="#EDEEEF" stroke-width="19.6133"/>
<path d="M423.802 1016.85L413.058 1005.55L407.527 1020.12C388.099 1071.32 394 1128.4 430.574 1168.75C400.376 1166.47 369.614 1170.9 343.821 1176.9C306.973 1185.47 278.565 1197.67 273.691 1200.26L258.452 1208.39L273.24 1217.31C355.976 1267.23 450.744 1256.34 503.704 1207.08L506.345 1204.63L506.765 1201.05C511.088 1164.16 497.609 1126 479.981 1093.73C462.25 1061.27 439.619 1033.48 423.802 1016.85Z" stroke="#EDEEEF" stroke-width="19.6133"/>
<path d="M112.748 363.684L118.269 367.354L123.732 363.598C148.337 346.682 157.42 320.57 155.835 293.958C154.267 267.631 142.348 240.32 124.416 218.577L116.637 209.143L109.117 218.785C91.649 241.184 80.3645 268.699 79.3794 294.969C78.3833 321.533 88.0185 347.249 112.748 363.684Z" stroke="#EDEEEF" stroke-width="19.6133"/>
<path d="M885.593 1220.59C905.806 1197.57 917.761 1170.39 924.664 1145.38C934.315 1110.42 934.416 1078.56 932.795 1065.6L930.782 1049.49L917.46 1058.77C889.892 1077.97 860.495 1106.32 839.031 1140.1C817.572 1173.87 803.635 1213.75 808.334 1255.61L808.741 1259.23L811.414 1261.71C842.445 1290.46 882.82 1302.91 922.73 1305.63C962.64 1308.34 1002.85 1301.41 1034.66 1290.58L1050.12 1285.31L1038.2 1274.14C1028.79 1265.31 1003.11 1246.6 969.242 1233.69C945.037 1224.46 916.085 1217.98 885.593 1220.59Z" stroke="#EDEEEF" stroke-width="19.6133"/>
<path d="M715.47 244.549C607.681 244.549 520.103 332.128 520.103 439.916C520.103 547.705 607.681 635.283 715.47 635.283C823.259 635.283 910.837 547.705 910.837 439.916C910.837 332.128 823.259 244.549 715.47 244.549ZM706.808 290.424L747.229 268.288C777.384 270.855 794.066 278.554 794.066 278.554C794.066 278.554 808.502 286.895 827.108 307.747L833.203 352.98L792.783 366.453V366.132L722.207 328.92L706.808 290.424ZM781.875 372.548L774.497 424.518L769.685 377.04L730.227 344.96L781.875 372.548ZM702.638 290.424L718.999 331.486L661.255 374.794L661.575 375.115L609.285 373.832L586.508 340.468L644.573 287.216L702.638 290.424ZM610.889 377.04L663.821 378.323L703.279 442.483L672.483 504.718L599.02 505.68L572.393 443.124L610.889 377.04ZM562.128 356.188L582.659 351.376L600.303 374.794L581.376 362.924L562.128 356.188ZM575.601 321.22C592.604 301.331 613.776 284.97 637.836 273.742L639.119 276.95L640.723 280.8L642.327 284.97L580.734 341.431L581.376 342.072L558.278 346.884C563.09 337.581 568.864 329.24 575.601 321.22ZM548.333 505.359C539.351 483.866 534.86 461.731 534.539 439.916L569.506 446.011L595.17 506.001H594.528L592.604 560.858L588.754 565.028C571.752 548.347 557.957 528.457 548.333 505.359ZM591 567.274L594.208 564.066L672.162 605.449L674.087 612.506C643.29 605.128 614.418 589.73 591 567.274ZM781.555 603.845C747.55 617.96 711.941 620.526 678.257 613.469L676.011 604.486L727.981 570.482L779.63 563.424L813.634 586.522C803.369 593.259 792.783 599.033 781.555 603.845ZM778.667 559.895L726.377 566.953L674.728 507.284L705.525 445.37L778.346 440.237L816.522 493.49L778.667 559.895ZM782.517 439.916L792.141 370.624L834.807 356.188L874.266 408.799L864 479.695L820.371 492.848L782.517 439.916ZM848.281 492.848L862.396 490.282L874.266 516.908L848.281 492.848ZM867.208 482.262L877.794 409.44C883.89 407.836 882.606 408.157 887.418 407.195C893.834 442.803 889.343 478.412 875.87 510.171L867.208 482.262Z" fill="#EDEEEF"/>
</g>
</svg>
