<svg width="33" height="32" viewBox="0 0 33 32" fill="none" xmlns="http://www.w3.org/2000/svg">
<g opacity="0.5" clip-path="url(#clip0_339_18349)">
<mask id="mask0_339_18349" style="mask-type:luminance" maskUnits="userSpaceOnUse" x="0" y="0" width="33" height="32">
<path d="M24.5 0H8.5C4.08172 0 0.5 3.58172 0.5 8V24C0.5 28.4183 4.08172 32 8.5 32H24.5C28.9183 32 32.5 28.4183 32.5 24V8C32.5 3.58172 28.9183 0 24.5 0Z" fill="white"/>
</mask>
<g mask="url(#mask0_339_18349)">
<path d="M24.5 0H8.5C4.08172 0 0.5 3.58172 0.5 8V24C0.5 28.4183 4.08172 32 8.5 32H24.5C28.9183 32 32.5 28.4183 32.5 24V8C32.5 3.58172 28.9183 0 24.5 0Z" fill="black"/>
<mask id="mask1_339_18349" style="mask-type:alpha" maskUnits="userSpaceOnUse" x="7" y="3" width="27" height="32">
<path opacity="0.85" d="M7 30.5C7 28.1131 7.94821 25.8239 9.63604 24.136C11.3239 22.4482 13.6131 21.5 16 21.5H25C27.3869 21.5 29.6761 22.4482 31.364 24.136C33.0518 25.8239 34 28.1131 34 30.5V35H7V30.5Z" fill="black"/>
<path opacity="0.3" fill-rule="evenodd" clip-rule="evenodd" d="M26.83 6.43004C26.5194 7.02642 26.0513 7.52629 25.4766 7.87536C24.9018 8.22443 24.2424 8.40935 23.57 8.41004H19.89C18.914 8.41004 17.978 8.79776 17.2879 9.48789C16.5977 10.178 16.21 11.114 16.21 12.09V17.91C17.1969 18.7257 18.3955 19.2438 19.6658 19.4039C20.9361 19.5641 22.2257 19.3596 23.3842 18.8144C24.5426 18.2693 25.5222 17.4059 26.2084 16.325C26.8947 15.2441 27.2594 13.9904 27.26 12.71V8.40004C27.25 7.70004 27.1 7.02004 26.83 6.42004V6.43004Z" fill="black"/>
<path fill-rule="evenodd" clip-rule="evenodd" d="M26.83 6.43C26.4461 5.55895 25.8174 4.81826 25.0202 4.29806C24.2231 3.77786 23.2919 3.5006 22.34 3.5H13.75V12.7C13.75 14.8 14.71 16.67 16.2 17.91V12.1C16.2 11.6159 16.2955 11.1365 16.4811 10.6894C16.6666 10.2423 16.9386 9.83616 17.2814 9.4943C17.6242 9.15245 18.031 8.8816 18.4787 8.69725C18.9263 8.5129 19.4059 8.41868 19.89 8.42H23.57C24.99 8.42 26.22 7.62 26.83 6.44V6.43Z" fill="url(#paint0_linear_339_18349)"/>
</mask>
<g mask="url(#mask1_339_18349)">
<path d="M2.5 2H38.5V38H2.5V2Z" fill="url(#paint1_linear_339_18349)"/>
</g>
</g>
</g>
<defs>
<linearGradient id="paint0_linear_339_18349" x1="22.34" y1="3.5" x2="20.5" y2="19.45" gradientUnits="userSpaceOnUse">
<stop/>
<stop offset="1" stop-opacity="0.5"/>
</linearGradient>
<linearGradient id="paint1_linear_339_18349" x1="14" y1="13" x2="29.5" y2="34" gradientUnits="userSpaceOnUse">
<stop stop-color="white"/>
<stop offset="1" stop-color="white" stop-opacity="0"/>
</linearGradient>
<clipPath id="clip0_339_18349">
<rect width="32" height="32" fill="white" transform="translate(0.5)"/>
</clipPath>
</defs>
</svg>
