<svg width="20" height="20" viewBox="0 0 20 20" fill="none" xmlns="http://www.w3.org/2000/svg">
<path fill-rule="evenodd" clip-rule="evenodd" d="M12.5 7.91661C12.5 8.40907 12.403 8.8967 12.2146 9.35167C12.0261 9.80664 11.7499 10.22 11.4017 10.5683C11.0535 10.9165 10.6401 11.1927 10.1851 11.3812C9.73013 11.5696 9.2425 11.6666 8.75004 11.6666C8.25758 11.6666 7.76995 11.5696 7.31498 11.3812C6.86001 11.1927 6.44661 10.9165 6.09839 10.5683C5.75017 10.22 5.47395 9.80664 5.28549 9.35167C5.09704 8.8967 5.00004 8.40907 5.00004 7.91661C5.00004 6.92205 5.39513 5.96822 6.09839 5.26496C6.80165 4.5617 7.75548 4.16661 8.75004 4.16661C9.7446 4.16661 10.6984 4.5617 11.4017 5.26496C12.105 5.96822 12.5 6.92205 12.5 7.91661ZM11.75 12.4333C10.6107 13.1895 9.22755 13.4869 7.87811 13.2656C6.52866 13.0444 5.31284 12.321 4.47465 11.2405C3.63646 10.1601 3.23794 8.80256 3.35908 7.44048C3.48022 6.0784 4.11205 4.81254 5.12776 3.89697C6.14347 2.9814 7.46789 2.48388 8.83519 2.50426C10.2025 2.52465 11.5115 3.06143 12.4995 4.00687C13.4874 4.95231 14.0812 6.23644 14.1617 7.60153C14.2422 8.96662 13.8034 10.3116 12.9334 11.3666C12.991 11.4017 13.0442 11.4437 13.0917 11.4916L16.8417 15.2416C16.9986 15.3985 17.0868 15.6114 17.0868 15.8333C17.0868 16.0552 16.9986 16.268 16.8417 16.4249C16.6848 16.5819 16.472 16.67 16.25 16.67C16.0281 16.67 15.8153 16.5819 15.6584 16.4249L11.9084 12.6749C11.8381 12.6024 11.7817 12.5177 11.7417 12.4249L11.75 12.4333Z" fill="#6C6F71" fill-opacity="0.65"/>
</svg>
